<svg width="670" height="719" viewBox="0 0 670 719" fill="none" xmlns="http://www.w3.org/2000/svg">
<path d="M106.705 388.834V228.251C106.705 175.906 157.275 182.117 198.086 182.117H441.179C497.959 182.117 544.981 173.245 544.094 244.221L543.207 324.068C542.319 387.947 544.094 410.127 480.215 423.435C463.359 426.984 457.148 430.532 457.148 448.276V557.402C457.148 578.695 470.456 576.92 481.99 576.92C520.139 576.92 512.155 516.591 575.146 516.591C607.972 516.591 659.43 537.883 659.43 576.92C659.43 587.567 658.542 598.213 654.994 608.859C621.28 710 584.018 705.564 449.163 705.564C387.947 705.564 320.52 695.805 320.52 629.265C320.52 567.161 319.632 512.155 319.632 450.051C319.632 440.292 316.971 432.307 306.324 432.307C292.129 432.307 291.242 448.276 291.242 458.036C291.242 489.975 282.37 513.042 275.273 544.094C256.641 623.942 167.921 708.226 83.6375 708.226C39.2776 708.226 10 683.384 10 637.25C10 567.161 150.177 555.627 150.177 461.584V427.871C129.772 428.758 106.705 419.886 106.705 388.834ZM433.194 10C474.005 10 515.703 48.1496 550.304 72.9912C566.274 84.5247 607.085 114.69 632.814 138.644C647.896 152.839 652.332 169.696 647.009 188.327C639.911 215.83 620.393 252.205 592.89 252.205C584.018 252.205 574.259 251.318 570.71 242.446C565.387 213.169 578.695 156.388 477.554 156.388H414.563C384.398 156.388 361.331 110.254 361.331 75.6528C361.331 36.616 399.48 10 433.194 10ZM390.608 285.919H274.385C259.303 285.919 250.431 289.468 250.431 305.437C250.431 320.52 268.175 324.956 280.596 324.956H387.947C407.465 324.956 417.224 322.294 417.224 301.001C417.224 286.806 401.255 285.919 390.608 285.919Z" fill="white"/>
</svg>
